<svg width="16" height="18" viewBox="0 0 16 18" fill="none" xmlns="http://www.w3.org/2000/svg">
<path fill-rule="evenodd" clip-rule="evenodd" d="M7.99993 0.166666C5.33055 0.166666 3.16659 2.33063 3.16659 5C3.16659 7.20384 4.64158 9.06317 6.65823 9.64468C5.06619 9.83868 3.70068 10.4018 2.67202 11.4156C1.3628 12.7059 0.699951 14.6267 0.699951 17.1332C0.699951 17.4831 0.983511 17.7665 1.33328 17.7665C1.68307 17.7665 1.96662 17.4831 1.96662 17.1332C1.96662 14.8399 2.5704 13.2941 3.56114 12.3177C4.55374 11.3395 6.03558 10.8333 7.99986 10.8333C9.96415 10.8333 11.4461 11.3395 12.4387 12.3177C13.4294 13.2941 14.0333 14.8399 14.0333 17.1332C14.0333 17.4831 14.3167 17.7665 14.6666 17.7665C15.0163 17.7667 15.2999 17.4831 15.2999 17.1333C15.2999 14.6267 14.637 12.7059 13.3278 11.4155C12.2991 10.4018 10.9336 9.83871 9.34159 9.64469C11.3582 9.0632 12.8333 7.20385 12.8333 5C12.8333 2.33063 10.6693 0.166666 7.99993 0.166666ZM4.43326 5C4.43326 3.03019 6.03011 1.43333 7.99993 1.43333C9.96974 1.43333 11.5666 3.03019 11.5666 5C11.5666 6.96981 9.96974 8.56667 7.99993 8.56667C6.03011 8.56667 4.43326 6.96981 4.43326 5Z" fill="#393E41"/>
</svg>
